<?xml version="1.0" encoding="UTF-8" standalone="no"?>
<svg
   xmlns:sketch="http://www.bohemiancoding.com/sketch/ns"
   xmlns:dc="http://purl.org/dc/elements/1.1/"
   xmlns:cc="http://creativecommons.org/ns#"
   xmlns:rdf="http://www.w3.org/1999/02/22-rdf-syntax-ns#"
   xmlns:svg="http://www.w3.org/2000/svg"
   xmlns="http://www.w3.org/2000/svg"
   xmlns:sodipodi="http://sodipodi.sourceforge.net/DTD/sodipodi-0.dtd"
   xmlns:inkscape="http://www.inkscape.org/namespaces/inkscape"
   viewBox="0 0 30 37.5"
   version="1.1"
   x="0px"
   y="0px"
   id="svg4136"
   inkscape:version="0.91 r13725"
   sodipodi:docname="noun_290606_ccXinhStudio_powerplant.svg">
  <metadata
     id="metadata4156">
    <rdf:RDF>
      <cc:Work
         rdf:about="">
        <dc:format>image/svg+xml</dc:format>
        <dc:type
           rdf:resource="http://purl.org/dc/dcmitype/StillImage" />
      </cc:Work>
    </rdf:RDF>
  </metadata>
  <defs
     id="defs4154" />
  <sodipodi:namedview
     pagecolor="#ffffff"
     bordercolor="#666666"
     borderopacity="1"
     objecttolerance="10"
     gridtolerance="10"
     guidetolerance="10"
     inkscape:pageopacity="0"
     inkscape:pageshadow="2"
     inkscape:window-width="1680"
     inkscape:window-height="1000"
     id="namedview4152"
     showgrid="false"
     inkscape:zoom="21.2"
     inkscape:cx="15"
     inkscape:cy="18.75"
     inkscape:window-x="-8"
     inkscape:window-y="-8"
     inkscape:window-maximized="1"
     inkscape:current-layer="svg4136" />
  <title
     id="title4138">nature_015-flower-tree-flowerpot-pot-plant-garden</title>
  <desc
     id="desc4140">Created with Sketch.</desc>
  <g
     sketch:type="MSPage"
     id="g4142"
     transform="translate(0,4)"
     style="fill:none;fill-rule:evenodd;stroke:none;stroke-width:1">
    <g
       sketch:type="MSArtboardGroup"
       transform="translate(-225,-90)"
       id="g4144"
       style="fill:#000000">
      <path
         d="m 246.41747,113 0.36041,-1.24729 c 0.12317,-0.42627 -0.13308,-0.76826 -0.57124,-0.76772 l -5.20664,0.006 0,-5.9352 c 1.19828,1.1666 3.09727,1.33682 4.49617,0.32045 1.56383,-1.13618 1.9105,-3.32498 0.77432,-4.8888 -0.0374,-0.0515 -0.0759,-0.10162 -0.11554,-0.15043 0.0607,-0.0162 0.12139,-0.0341 0.18189,-0.0538 1.83839,-0.597326 2.84447,-2.571865 2.24714,-4.410254 -0.59733,-1.83839 -2.57187,-2.844468 -4.41026,-2.247139 -0.0605,0.01966 -0.1201,0.04081 -0.17877,0.06339 C 243.9983,93.626833 244,93.563615 244,93.5 c 0,-1.932997 -1.567,-3.5 -3.5,-3.5 -1.933,0 -3.5,1.567003 -3.5,3.5 0,0.06361 0.002,0.126833 0.005,0.189612 l 0,0 c -0.0587,-0.02259 -0.11827,-0.04374 -0.17877,-0.06339 -1.83839,-0.597329 -3.81293,0.408749 -4.41026,2.247139 -0.59733,1.838389 0.40875,3.812928 2.24714,4.410249 0.0605,0.0197 0.12115,0.0376 0.18189,0.0538 -0.0396,0.0488 -0.0781,0.099 -0.11554,0.15043 -1.13618,1.56383 -0.78951,3.75262 0.77431,4.8888 1.39891,1.01637 3.2979,0.84615 4.49618,-0.32044 l 0,5.93643 -5.20202,0.006 c -0.43223,5.4e-4 -0.69409,0.34453 -0.57163,0.76832 l 0.35618,1.23266 11.83494,0 z m -0.28896,1 -1.65291,5.72028 C 244.43096,119.87477 244.25957,120 244.09892,120 l -7.19784,0 c -0.1634,0 -0.33261,-0.12723 -0.37653,-0.27922 L 234.87149,114 l 11.25702,0 z M 240.5,101 c 1.38071,0 2.5,-1.119288 2.5,-2.5 0,-1.380712 -1.11929,-2.5 -2.5,-2.5 -1.38071,0 -2.5,1.119288 -2.5,2.5 0,1.380712 1.11929,2.5 2.5,2.5 z"
         sketch:type="MSShapeGroup"
         id="path4146"
         inkscape:connector-curvature="0" />
    </g>
  </g>
  <text
     x="0"
     y="45"
     fill="#000000"
     font-size="5px"
     font-weight="bold"
     font-family="'Helvetica Neue', Helvetica, Arial-Unicode, Arial, Sans-serif"
     id="text4148">Created by Pham Thi Dieu Linh</text>
  <text
     x="0"
     y="50"
     fill="#000000"
     font-size="5px"
     font-weight="bold"
     font-family="'Helvetica Neue', Helvetica, Arial-Unicode, Arial, Sans-serif"
     id="text4150">from the Noun Project</text>
</svg>
